<svg width="40" height="40" viewBox="0 0 40 40" fill="none" xmlns="http://www.w3.org/2000/svg">
<path fill-rule="evenodd" clip-rule="evenodd" d="M0.533334 0C0.238561 0 0 0.239246 0 0.533333V0.533333V25.9722C0 33.6754 6.30335 39.9787 14.0072 39.9787V39.9787C21.0639 39.9787 26.9416 34.6893 27.8801 27.88V27.88C34.6893 26.9416 39.9781 21.0632 39.9781 14.0072V14.0072C39.9781 6.30334 33.6754 0 25.9716 0V0H0.533334ZM7.72949 25.9722V7.99583C7.72949 7.84845 7.84877 7.72917 7.99616 7.72917V7.72917H25.9718C29.2054 7.72917 32.2498 10.2608 32.2498 14.0071V14.0071C32.2498 17.1907 29.8718 20.2227 25.9862 20.2227V20.2227L20.7831 20.2529C20.4911 20.2543 20.2546 20.4908 20.2526 20.7828V20.7828L20.2231 25.9859C20.2231 29.8721 17.191 32.2495 14.0075 32.2495V32.2495C10.2618 32.2495 7.72949 29.2058 7.72949 25.9722V25.9722ZM30.7842 35.3919C30.7842 37.9366 32.8469 40 35.3922 40V40C37.9369 40 40.0003 37.9366 40.0003 35.3919V35.3919C40.0003 32.8466 37.9369 30.7839 35.3922 30.7839V30.7839C32.8469 30.7839 30.7842 32.8466 30.7842 35.3919V35.3919Z" fill="url(#paint0_linear_60649_145008)"/>
<defs>
<linearGradient id="paint0_linear_60649_145008" x1="20.0001" y1="-20" x2="-19.9998" y2="20.0003" gradientUnits="userSpaceOnUse">
<stop stop-color="#2EFF71"/>
<stop offset="1" stop-color="#009148"/>
</linearGradient>
</defs>
</svg>
